<svg xmlns="http://www.w3.org/2000/svg" width="28" height="32" fill="none">
	<path fill="#6E1AE6" fill-rule="evenodd" d="M4.2 22.9a6 6 0 0 1 3.3 4.8c.1.8.5 1.4 1 1.9l1.8 1.4c.5.3 1 .6 1.7.8a6 6 0 0 0 3.2 0L17 31l1.7-1.4c.6-.5 1-1.1 1-1.9A6 6 0 0 1 23 23a4 4 0 0 0 1.4-1.2 13.6 13.6 0 1 0-21.6 0c.4.5.9 1 1.4 1.2Z" clip-rule="evenodd" />
	<path fill="#fff" fill-rule="evenodd" d="M13.6 29.6c1 0 1.8.2 1.8.5s-.8.5-1.8.5-1.8-.2-1.8-.5.8-.5 1.8-.5Zm-4.8-6c-.2-.7.3-1.4 1-1.7a12 12 0 0 1 7.6 0c.7.3 1.2 1 1 1.8 0 .7-.2 1.7-.4 2.4a1 1 0 0 1-1.2.8 12 12 0 0 0-6.4 0 1 1 0 0 1-1.2-.8l-.4-2.4Z" clip-rule="evenodd" />
	<path fill="#FFE14C" fill-rule="evenodd" d="M10.7 19.8a12 12 0 0 0-3.5 1.5c-1 .7-2.4.5-3.2-.5a12 12 0 1 1 19.1 0c-.7 1-2 1.2-3 .5a12 12 0 0 0-3.6-1.5l-.3-1.7a1.2 1.2 0 0 0-1-1c-.7-.1-1.1-.7-1.1-1.3v-4.2c0-1 .4-1.9 1-2.6a2.3 2.3 0 0 0-1.5-4c-1.3 0-2.3 1-2.3 2.3 0 .7.3 1.3.7 1.7.8.7 1.2 1.6 1.2 2.6v4.2A1.2 1.2 0 0 1 12 17c-.5 0-1 .5-1 1l-.4 1.8Z" clip-rule="evenodd" />
</svg>