<svg xmlns="http://www.w3.org/2000/svg" width="240" height="240" fill="none"><path fill="#371664" fill-rule="evenodd" d="M49.47 171.61a44.51 44.51 0 0125.08 36.22 19.96 19.96 0 007.69 14.07l13.33 10.3a35.7 35.7 0 0012.36 6.17 45.57 45.57 0 0024.14 0 35.67 35.67 0 0012.36-6.17l13.33-10.3a19.96 19.96 0 007.7-14.06 44.53 44.53 0 0125.07-36.23 29.42 29.42 0 0010.59-8.6 100.72 100.72 0 0020.88-61.5C222 45.47 176.3 0 120 0S18 45.48 18 101.5c0 23.11 7.78 44.43 20.87 61.5v.01a29.45 29.45 0 0010.6 8.6z" clip-rule="evenodd"/><path fill="#fff" fill-rule="evenodd" d="M120.05 222.18c7.43 0 13.46 1.65 13.46 3.7 0 2.04-6.03 3.7-13.46 3.7-7.42 0-13.46-1.66-13.46-3.7 0-2.05 6.03-3.7 13.46-3.7zm-36.3-44.7a11.76 11.76 0 017.98-13.13 90.53 90.53 0 0128.32-4.52c9.9 0 19.42 1.6 28.33 4.53a11.76 11.76 0 017.98 13.12 12753 12753 0 01-3.08 18.35 7.36 7.36 0 01-9.24 5.88 90.52 90.52 0 00-23.99-3.21c-8.3 0-16.35 1.12-23.99 3.21a7.42 7.42 0 01-9.23-5.88l-3.09-18.35z" clip-rule="evenodd"/><path fill="#FFE14C" fill-rule="evenodd" d="M98.45 148.82a89.9 89.9 0 00-26.54 11.27 17.8 17.8 0 01-23.59-4.17 89.06 89.06 0 01-18.44-54.36c0-49.53 40.4-89.74 90.18-89.74 49.76 0 90.17 40.21 90.17 89.74a89.02 89.02 0 01-18.45 54.36 17.8 17.8 0 01-23.58 4.17 89.91 89.91 0 00-26.54-11.27l-2.27-13.43a9.33 9.33 0 00-8.07-7.68 9.03 9.03 0 01-7.92-8.95c0-8.34 0-21.38.03-31.55 0-7.36 3.07-14.38 8.5-19.39a17.34 17.34 0 005.63-12.8c0-9.6-7.85-17.41-17.5-17.41-9.67 0-17.5 7.8-17.5 17.42a17.2 17.2 0 005.64 12.77 26.41 26.41 0 018.52 19.41c0 10.17 0 23.21-.02 31.55a9.01 9.01 0 01-7.93 8.92 9.34 9.34 0 00-8.06 7.7l-2.26 13.44z" clip-rule="evenodd"/></svg>